<svg id="Layer_1" data-name="Layer 1" xmlns="http://www.w3.org/2000/svg" viewBox="0 0 2000 2000"><defs><style>.cls-1{fill:#de1e40;}.cls-2{fill:#f0a290;}.cls-3{fill:#f1a290;}.cls-4{fill:#de1f40;}</style></defs><g id="Layer_4" data-name="Layer 4"><path class="cls-1" d="M448.9,1026V909.79A41.06,41.06,0,0,1,490,868.73h0v73a66.94,66.94,0,0,1,16.1-10.27q8.67-3.9,20.73-3.91a48,48,0,0,1,19.93,3.91,41.41,41.41,0,0,1,14.64,10.86,46.9,46.9,0,0,1,9,16.56,68.56,68.56,0,0,1,3,20.86V1067h-41V979.7q0-10.07-4.63-15.69t-13.65-5.63a28.6,28.6,0,0,0-12.72,2.91A49.88,49.88,0,0,0,490,969.14V1067h0A41.06,41.06,0,0,1,448.9,1026Z"/><path class="cls-1" d="M697.4,1067c-3.89,0-6.82-.53-8.81-1.59s-3.64-3.27-5-6.62l-2.91-7.55q-5.16,4.37-9.94,7.68a62.44,62.44,0,0,1-9.86,5.63A48.86,48.86,0,0,1,650,1068a66.75,66.75,0,0,1-12.78,1.13,55.88,55.88,0,0,1-17.09-2.46,35.7,35.7,0,0,1-13-7.24,32,32,0,0,1-8.27-11.9,42.82,42.82,0,0,1-2.92-16.41,34.62,34.62,0,0,1,3.71-15q3.71-7.7,12.85-14t24.64-10.56q15.5-4.26,39.08-4.26v-5.9q0-12.17-5-17.58t-14.11-5.41a37.45,37.45,0,0,0-11.9,1.59,54.55,54.55,0,0,0-8.28,3.57c-2.43,1.33-4.79,2.53-7.09,3.58a19.46,19.46,0,0,1-8.21,1.59,12.38,12.38,0,0,1-7.22-2,15.11,15.11,0,0,1-4.7-5.1l-7.42-12.85a83.34,83.34,0,0,1,27.62-16.36A96.79,96.79,0,0,1,662.43,927a59.42,59.42,0,0,1,22.45,4,48.45,48.45,0,0,1,17,11.26,49.3,49.3,0,0,1,10.66,17.16,61.64,61.64,0,0,1,3.71,21.72V1067Zm-47.16-25a32.5,32.5,0,0,0,13.91-2.78,42.09,42.09,0,0,0,12.06-9v-18.81a105.15,105.15,0,0,0-20.27,1.61,48.88,48.88,0,0,0-12.59,4,15.17,15.17,0,0,0-6.42,5.48,13,13,0,0,0-1.79,6.68q0,7.08,3.84,10t11.26,2.87Z"/><path class="cls-1" d="M787.74,868.73V1067H746.67V909.79a41.06,41.06,0,0,1,41.06-41.06Z"/><path class="cls-1" d="M915.7,1067q-5.84,0-8.81-1.59t-5-6.62l-2.91-7.55q-5.18,4.37-9.94,7.68a62.54,62.54,0,0,1-9.87,5.63,48.67,48.67,0,0,1-10.86,3.44,66.75,66.75,0,0,1-12.78,1.13,55.88,55.88,0,0,1-17.09-2.46,35.68,35.68,0,0,1-13.05-7.24,31.87,31.87,0,0,1-8.28-11.9,43,43,0,0,1-2.91-16.41,34.31,34.31,0,0,1,3.71-15q3.71-7.7,12.85-14t24.63-10.56q15.51-4.26,39.08-4.26V981.4q0-12.17-5-17.58t-14.1-5.41A37.55,37.55,0,0,0,863.5,960a54,54,0,0,0-8.27,3.57c-2.43,1.33-4.8,2.52-7.09,3.58a19.46,19.46,0,0,1-8.21,1.59,12.3,12.3,0,0,1-7.22-2,15.33,15.33,0,0,1-4.71-5.1l-7.41-12.85a83.34,83.34,0,0,1,27.62-16.36A96.79,96.79,0,0,1,880.73,927a59.42,59.42,0,0,1,22.45,4,48.32,48.32,0,0,1,17,11.26,49.23,49.23,0,0,1,10.67,17.16,61.64,61.64,0,0,1,3.71,21.72V1067Zm-47.16-25a32.5,32.5,0,0,0,13.91-2.78,42.19,42.19,0,0,0,12-9v-18.81a105.15,105.15,0,0,0-20.27,1.61,48.69,48.69,0,0,0-12.58,4,15.17,15.17,0,0,0-6.42,5.48,13,13,0,0,0-1.79,6.68q0,7.08,3.84,10t11.31,2.87Z"/><path class="cls-1" d="M1006,909.79V1026a41.06,41.06,0,0,1-41,41h0V868.73h0A41.06,41.06,0,0,1,1006,909.79Z"/><path class="cls-2" d="M1098,927.54a70.78,70.78,0,0,1,25,4.24,54.44,54.44,0,0,1,19.48,12.32,56.1,56.1,0,0,1,12.71,19.81,72.45,72.45,0,0,1,4.57,26.55,59.58,59.58,0,0,1-.39,7.55,12.23,12.23,0,0,1-1.46,4.64A5.63,5.63,0,0,1,1155,1005a13.36,13.36,0,0,1-4.57.66H1071.2q2,17.22,10.47,25t21.86,7.75a39.26,39.26,0,0,0,12.32-1.73,60.17,60.17,0,0,0,9.2-3.84c2.69-1.41,5.17-2.69,7.42-3.84a15.46,15.46,0,0,1,7.09-1.72,8.49,8.49,0,0,1,7.42,3.58l11.92,14.7a61.4,61.4,0,0,1-13.71,11.86,72,72,0,0,1-15.1,7.15,82.38,82.38,0,0,1-15.5,3.57,115.84,115.84,0,0,1-14.77,1,77.25,77.25,0,0,1-27.09-4.7,62.37,62.37,0,0,1-22.12-14,65.73,65.73,0,0,1-15-23q-5.5-13.77-5.5-32.05a72.73,72.73,0,0,1,4.7-26.1,63.41,63.41,0,0,1,34.84-36.3A70.36,70.36,0,0,1,1098,927.54Zm.8,28.35q-11.79,0-18.42,6.69t-8.74,19.27h42.66a7.56,7.56,0,0,0,7.61-7.51,7.85,7.85,0,0,0-.24-1.93v-.09a23.23,23.23,0,0,0-4.11-8.28,21.1,21.1,0,0,0-7.48-5.9,25.63,25.63,0,0,0-11.32-2.25Z"/><path class="cls-2" d="M1267.25,959.73a10.62,10.62,0,0,1-3.38,3.58,8.78,8.78,0,0,1-4.57,1.06,14.4,14.4,0,0,1-5.82-1.26l-6.3-2.72a68.14,68.14,0,0,0-7.61-2.71,34,34,0,0,0-9.67-1.26q-7.83,0-12,3a9.61,9.61,0,0,0-4.17,8.28,8.31,8.31,0,0,0,2.71,6.36,25.11,25.11,0,0,0,7.22,4.44,99.77,99.77,0,0,0,10.2,3.64q5.7,1.73,11.66,3.84a105,105,0,0,1,11.65,5,43.49,43.49,0,0,1,10.2,7,31.45,31.45,0,0,1,7.22,10.13,34.28,34.28,0,0,1,2.72,14.31,47.08,47.08,0,0,1-3.71,18.81,39.89,39.89,0,0,1-11.06,14.84,52.15,52.15,0,0,1-18.15,9.66,81.58,81.58,0,0,1-24.84,3.45,74.69,74.69,0,0,1-14-1.33,96.2,96.2,0,0,1-13.58-3.57,73.64,73.64,0,0,1-12.12-5.37,52.2,52.2,0,0,1-9.53-6.69l9.53-15.1A13.85,13.85,0,0,1,1184,1033a11.42,11.42,0,0,1,6.23-1.52,13.09,13.09,0,0,1,6.42,1.59l6.16,3.44a51.07,51.07,0,0,0,7.75,3.44,33.44,33.44,0,0,0,11.19,1.59,28.6,28.6,0,0,0,8.08-1,14.21,14.21,0,0,0,5.3-2.71,10.83,10.83,0,0,0,2.92-3.85,11,11,0,0,0,.92-4.37,8.91,8.91,0,0,0-2.78-6.75,23.93,23.93,0,0,0-7.28-4.57,91.09,91.09,0,0,0-10.27-3.58q-5.76-1.65-11.72-3.78a93,93,0,0,1-11.73-5.1,39.85,39.85,0,0,1-10.26-7.55A35,35,0,0,1,1177.6,987a44.88,44.88,0,0,1,.6-32.65,38.7,38.7,0,0,1,10.13-13.85,50,50,0,0,1,17-9.47,73.3,73.3,0,0,1,23.84-3.51,77,77,0,0,1,14.37,1.33,72.51,72.51,0,0,1,13,3.71,62.5,62.5,0,0,1,11.13,5.63,53.61,53.61,0,0,1,8.88,7.08Z"/><path class="cls-2" d="M1398.92,962.25a23.31,23.31,0,0,1-3.58,3.58,7.89,7.89,0,0,1-4.9,1.32,10.52,10.52,0,0,1-5.5-1.46l-5.49-3.24a42.73,42.73,0,0,0-7.16-3.25,30.91,30.91,0,0,0-10.2-1.45,28.49,28.49,0,0,0-13,2.78,24.19,24.19,0,0,0-9.07,8,36.47,36.47,0,0,0-5.3,12.65A75.47,75.47,0,0,0,1333,998q0,19.74,7.62,30.34t21,10.6q7.16,0,11.33-1.79a34.63,34.63,0,0,0,7.09-4l5.36-4a10,10,0,0,1,6.16-1.85,8.46,8.46,0,0,1,7.42,3.58l11.92,14.7a64.89,64.89,0,0,1-13.38,11.86,67.15,67.15,0,0,1-14.37,7.15,74.33,74.33,0,0,1-14.77,3.57,107.37,107.37,0,0,1-14.44,1,62,62,0,0,1-24-4.77,58.94,58.94,0,0,1-20.14-13.84,66.37,66.37,0,0,1-13.77-22.32q-5.1-13.25-5.1-30.21a84.47,84.47,0,0,1,4.44-27.75,62.76,62.76,0,0,1,13.11-22.38A61.09,61.09,0,0,1,1329.84,933q12.78-5.43,29.6-5.43,16.17,0,28.35,5.17a67.88,67.88,0,0,1,22,15.1Z"/><path class="cls-2" d="M1523.43,1067c-3.88,0-6.82-.53-8.8-1.59s-3.65-3.27-5-6.62l-2.92-7.55q-5.16,4.37-9.93,7.68a62.54,62.54,0,0,1-9.87,5.63,48.67,48.67,0,0,1-10.86,3.44,66.75,66.75,0,0,1-12.78,1.13,55.88,55.88,0,0,1-17.09-2.46,35.54,35.54,0,0,1-13-7.24,31.87,31.87,0,0,1-8.28-11.9,43,43,0,0,1-2.91-16.41,34.31,34.31,0,0,1,3.71-15q3.71-7.7,12.84-14t24.64-10.56q15.51-4.26,39.08-4.26V981.4q0-12.17-5-17.58t-14.11-5.41a37.29,37.29,0,0,0-11.92,1.59,54.55,54.55,0,0,0-8.28,3.57c-2.43,1.33-4.79,2.53-7.08,3.58a19.51,19.51,0,0,1-8.22,1.59,12.37,12.37,0,0,1-7.21-2,15.33,15.33,0,0,1-4.71-5.1l-7.42-12.85a83.51,83.51,0,0,1,27.62-16.36,96.73,96.73,0,0,1,32.52-5.37,59.47,59.47,0,0,1,22.46,4,48.49,48.49,0,0,1,16.95,11.26,49.23,49.23,0,0,1,10.67,17.16,61.63,61.63,0,0,1,3.7,21.72V1067Zm-47.15-25a32.5,32.5,0,0,0,13.91-2.78,42.19,42.19,0,0,0,12-9v-18.81A105,105,0,0,0,1482,1013a48.69,48.69,0,0,0-12.58,4,15.4,15.4,0,0,0-6.43,5.48,13,13,0,0,0-1.79,6.68q0,7.08,3.85,9.95T1476.28,1042Z"/><path class="cls-2" d="M1571.38,1131.27V929.66h25.44a11.37,11.37,0,0,1,6.42,1.72,9.21,9.21,0,0,1,3.64,5.17l3,10.07a68.82,68.82,0,0,1,8.55-8,56,56,0,0,1,9.8-6.16,53.53,53.53,0,0,1,11.26-4,55.66,55.66,0,0,1,13.18-1.46,42.27,42.27,0,0,1,19.87,4.77,45.82,45.82,0,0,1,15.76,13.78,69.42,69.42,0,0,1,10.4,22.05,106.48,106.48,0,0,1,3.78,29.61,91.33,91.33,0,0,1-4.31,28.61,71.91,71.91,0,0,1-12,22.79,55.63,55.63,0,0,1-18.55,15.1,52.55,52.55,0,0,1-23.91,5.43q-10.73,0-18-3.05a48.89,48.89,0,0,1-13.24-8.21v32.32a41.06,41.06,0,0,1-41.06,41.06h0Zm67-172.86a35.44,35.44,0,0,0-8.15.86,29.48,29.48,0,0,0-6.75,2.45,25.48,25.48,0,0,0-5.76,4,58.73,58.73,0,0,0-5.3,5.63v58.28a25.78,25.78,0,0,0,10.07,7.22,31.89,31.89,0,0,0,11.39,2.06,24.06,24.06,0,0,0,10.46-2.26,21.28,21.28,0,0,0,8.28-7.21,38.53,38.53,0,0,0,5.5-12.92,81.16,81.16,0,0,0,2-19.34,89.66,89.66,0,0,0-1.58-18.28,37.93,37.93,0,0,0-4.44-12,17.28,17.28,0,0,0-6.82-6.56,19.58,19.58,0,0,0-8.87-1.93Z"/><path class="cls-2" d="M1783.33,927.54a70.78,70.78,0,0,1,25,4.24,54.44,54.44,0,0,1,19.48,12.32,56.1,56.1,0,0,1,12.71,19.81,72.67,72.67,0,0,1,4.58,26.55,57.79,57.79,0,0,1-.4,7.55,11.89,11.89,0,0,1-1.46,4.64,5.58,5.58,0,0,1-2.85,2.39,13.36,13.36,0,0,1-4.57.66h-79.21q2,17.22,10.46,25t21.86,7.75a39,39,0,0,0,12.32-1.73,61.3,61.3,0,0,0,9.21-3.84q4-2.12,7.41-3.84a15.46,15.46,0,0,1,7.09-1.72,8.46,8.46,0,0,1,7.42,3.58l11.92,14.7a61.4,61.4,0,0,1-13.71,11.86,72,72,0,0,1-15.1,7.15,81.61,81.61,0,0,1-15.5,3.57,115.84,115.84,0,0,1-14.77,1,77.25,77.25,0,0,1-27.09-4.7,62.37,62.37,0,0,1-22.12-14,65.87,65.87,0,0,1-15-23q-5.49-13.77-5.5-32.05a72.49,72.49,0,0,1,4.71-26.1A63.45,63.45,0,0,1,1755,933,70.61,70.61,0,0,1,1783.33,927.54Zm.79,28.35q-11.79,0-18.41,6.69T1757,981.85h42.61a7.61,7.61,0,0,0,7.66-7.54,8.1,8.1,0,0,0-.23-1.9v-.09a23.23,23.23,0,0,0-4.11-8.28,21.1,21.1,0,0,0-7.48-5.9,25.7,25.7,0,0,0-11.33-2.25Z"/><path class="cls-2" d="M1952.61,959.73a10.6,10.6,0,0,1-3.37,3.58,8.87,8.87,0,0,1-4.57,1.06,14.48,14.48,0,0,1-5.83-1.26l-6.3-2.72a68.14,68.14,0,0,0-7.61-2.71,34,34,0,0,0-9.67-1.26q-7.82,0-12,3a9.61,9.61,0,0,0-4.17,8.28,8.31,8.31,0,0,0,2.71,6.36,25.11,25.11,0,0,0,7.22,4.44,99.77,99.77,0,0,0,10.2,3.64q5.7,1.73,11.66,3.84a104.33,104.33,0,0,1,11.66,5,44,44,0,0,1,10.2,7,31.45,31.45,0,0,1,7.22,10.13,34.43,34.43,0,0,1,2.71,14.31,47.08,47.08,0,0,1-3.71,18.81,39.89,39.89,0,0,1-11.06,14.84,52.15,52.15,0,0,1-18.15,9.66,81.56,81.56,0,0,1-24.83,3.45,74.69,74.69,0,0,1-14-1.33,96.43,96.43,0,0,1-13.57-3.57,73.64,73.64,0,0,1-12.12-5.37,52.28,52.28,0,0,1-9.54-6.69l9.54-15.1a13.7,13.7,0,0,1,4.1-4.17,11.42,11.42,0,0,1,6.23-1.52A13.09,13.09,0,0,1,1882,1033l6.16,3.44a51.07,51.07,0,0,0,7.75,3.44,33.5,33.5,0,0,0,11.2,1.59,28.6,28.6,0,0,0,8.08-1,14.51,14.51,0,0,0,5.3-2.71,10.71,10.71,0,0,0,3.84-8.22,8.9,8.9,0,0,0-2.79-6.75,23.93,23.93,0,0,0-7.28-4.57,91.09,91.09,0,0,0-10.27-3.58q-5.76-1.65-11.72-3.78a92.89,92.89,0,0,1-11.72-5.1,40.07,40.07,0,0,1-10.27-7.55A35.17,35.17,0,0,1,1863,987a44.88,44.88,0,0,1,.6-32.65,38.7,38.7,0,0,1,10.13-13.85,50,50,0,0,1,17-9.47,73.3,73.3,0,0,1,23.84-3.51,77.11,77.11,0,0,1,14.38,1.33,72.51,72.51,0,0,1,13,3.71,61.84,61.84,0,0,1,11.13,5.63,53.61,53.61,0,0,1,8.88,7.08Z"/><path class="cls-1" d="M244,847.33a95.92,95.92,0,0,1,12.1.8l-2.31-.31a91.68,91.68,0,0,1,23,6.25l-2.09-.88a91.66,91.66,0,0,1,12.12,6.21q2.85,1.74,5.57,3.69l1.38,1c.21.15.64.36.76.57,0,0-1.87-1.47-.86-.67s1.79,1.43,2.66,2.17A91.23,91.23,0,0,1,306,875.6c.72.81,1.41,1.64,2.09,2.47.33.39.64.79,1,1.19l.47.6c-1.78-2.23-.84-1.09-.44-.56,1.37,1.84,2.68,3.72,3.91,5.65a91.41,91.41,0,0,1,7.12,13.58l-.88-2.09a91.68,91.68,0,0,1,6.25,23l-.32-2.32a101.3,101.3,0,0,1,.48,21.39c-.2,2.4-.46,4.8-.78,7.18l.31-2.32a199.58,199.58,0,0,1-9.66,39.12Q313,989.74,310,996.82l.88-2.08a286.09,286.09,0,0,1-19.55,37.88q-6.54,10.7-13.89,20.85c-1.33,1.81-2.67,3.6-4,5.38-.63.84-1.26,1.68-1.9,2.51l-.45.58c-.86,1.13.4-.5.46-.59-.39.52-.8,1-1.21,1.56q-4.38,5.6-9,11c-7.47,8.82-15.33,17.31-23.49,25.48h12.33q-11-11-21.11-22.69-4.69-5.46-9.2-11.09l-2-2.54c-.36-.45-.71-.91-1.06-1.36s-1-1.3.46.59l-.6-.77q-2.05-2.68-4.06-5.41a317,317,0,0,1-25.64-40.79q-5.3-10.11-9.75-20.62l.88,2.08a221.39,221.39,0,0,1-13.72-44.45q-.85-4.47-1.47-9l.31,2.32a107.16,107.16,0,0,1-1.11-16.3,111.83,111.83,0,0,1,.8-12.27l-.31,2.32a91.68,91.68,0,0,1,6.25-23l-.88,2.09a91.66,91.66,0,0,1,6.21-12.12q1.74-2.85,3.69-5.57l1-1.38c.15-.21.36-.64.57-.76,0,0-1.47,1.87-.67.86s1.43-1.79,2.17-2.66a91.33,91.33,0,0,1,9.44-9.63c.81-.71,1.64-1.4,2.47-2.09l1.19-1,.6-.47c-2.23,1.77-1.09.84-.56.44,1.84-1.37,3.72-2.68,5.65-3.91a91.41,91.41,0,0,1,13.58-7.12l-2.09.88a91.68,91.68,0,0,1,23-6.25l-2.32.31a95.92,95.92,0,0,1,12.1-.8c4.56,0,8.93-4,8.72-8.72A8.86,8.86,0,0,0,244,829.9,100.94,100.94,0,0,0,200.45,840,97.19,97.19,0,0,0,168,865.32,100.66,100.66,0,0,0,147.89,904a108.93,108.93,0,0,0-3.27,26.29,90.67,90.67,0,0,0,.47,9.61,183.62,183.62,0,0,0,3.18,20.86,216.2,216.2,0,0,0,7.45,26.41,277.28,277.28,0,0,0,14.75,34.32,312,312,0,0,0,22.66,37.41,395.34,395.34,0,0,0,34.63,42.49q5,5.29,10.07,10.41a8.84,8.84,0,0,0,12.33,0,415.38,415.38,0,0,0,37.57-43.14,325.24,325.24,0,0,0,25.12-38.4,288,288,0,0,0,16.73-35.78,225.71,225.71,0,0,0,8.82-27.93,195.5,195.5,0,0,0,4.09-22.78,104.34,104.34,0,0,0-.42-30.1,96.43,96.43,0,0,0-15.13-39.07,101.45,101.45,0,0,0-30.84-29.93,100.37,100.37,0,0,0-41.79-14.16A91,91,0,0,0,244,829.9c-4.56,0-8.93,4-8.72,8.71A8.89,8.89,0,0,0,244,847.33Z"/><path class="cls-3" d="M165.42,1087.91a415.92,415.92,0,0,0,36.41-50,291.87,291.87,0,0,0,21.58-42.63,194.63,194.63,0,0,0,10-31.63,145.1,145.1,0,0,0,3.31-23.56,66.4,66.4,0,0,0-.13-10.17c-.1-1-.21-2-.38-2.93h0c0,.11.26,2.79.31,1.4V926.8c-.06-2-.18-4-.37-6.07A99.35,99.35,0,0,0,38,922.91c-.07,1-.12,2-.15,2.93v1.36c0,.46-.21,2.75.14.66.43-2.62-.12,1.1-.17,1.45l-.06.56c-.27,2.54-.37,5.11-.4,7.67A147.79,147.79,0,0,0,38,953a208.68,208.68,0,0,0,3.63,24.11,218.11,218.11,0,0,0,7.8,27.58A262.47,262.47,0,0,0,64,1038.2a282.27,282.27,0,0,0,21.57,34.93,351.21,351.21,0,0,0,32.23,38.55,412.9,412.9,0,0,0,42.13,37.84q12.82,10.08,26.24,19.37c3.3,2.28,7.82,1.08,10.57-1.36l24.9-22.16,3.53-3.15c3.42-3,3.33-9.27,0-12.33a8.94,8.94,0,0,0-12.33,0l-24.9,22.16-3.53,3.15,10.56-1.37q-6.56-4.53-13-9.25-3.12-2.3-6.19-4.64l-1.64-1.26.61.47-.69-.53-3-2.33q-11.42-9-22.22-18.78a370.2,370.2,0,0,1-35.56-36.82q-3.78-4.53-7.41-9.2c-.91-1.17,1.19,1.55.3.38l-.79-1c-.61-.8-1.21-1.6-1.81-2.41q-1.65-2.2-3.25-4.44-6.12-8.52-11.62-17.45a263.54,263.54,0,0,1-17.29-33l-.77-1.8c-.23-.52,1,2.27.37.89-.16-.39-.32-.79-.49-1.18-.52-1.27-1-2.54-1.53-3.82-1-2.46-1.89-4.94-2.78-7.44q-2.47-7-4.49-14.1a205.27,205.27,0,0,1-5.37-24.64L56,958.75c-.2-1.44.37,2.78.13.91L56,958.28c-.19-1.62-.37-3.24-.52-4.87q-.4-4.3-.59-8.62c-.15-3.91-.17-7.83,0-11.75.06-1,.13-2,.23-3,0-.22,0-.45.07-.68v-.13c0-.28-.34,2.56-.31,2.3l.31-2.32c.06-1,0-2.12.06-3.18q.09-2.92.38-5.83a19.89,19.89,0,0,0,.31-2.66s-.34,2.39-.14,1a5,5,0,0,1,.1-.66l.24-1.53a91.22,91.22,0,0,1,2.6-11.07c.54-1.79,1.14-3.56,1.79-5.33.33-.87.67-1.74,1-2.6.08-.2.15-.41.24-.6s-.84,2-.46,1.09c.21-.45.4-.91.61-1.37a91.82,91.82,0,0,1,5.16-9.82c1-1.63,2-3.23,3.13-4.8.48-.7,1-1.38,1.48-2.07.25-.34.52-.67.77-1,.54-.75-.82,1.07-.72.92s.43-.56.66-.83a93.29,93.29,0,0,1,7.36-8.16c1.31-1.28,2.66-2.53,4-3.73.64-.56,1.29-1.1,1.94-1.64.38-.32.77-.63,1.15-.93.17-.14.34-.26.5-.4.81-.65-1.6,1.2-.76.59a108.49,108.49,0,0,1,9.17-6.14,108.11,108.11,0,0,1,9.91-5c.85-.39-1.25.54-1.09.46s.54-.23.79-.33l1.2-.48,2.63-1q2.66-.93,5.37-1.7A90.29,90.29,0,0,1,126,848l.66-.09c.93-.15-1.39.15-1.22.16a8.49,8.49,0,0,0,1.32-.16q1.56-.18,3.12-.3c2-.16,3.91-.25,5.86-.28a93.69,93.69,0,0,1,11.72.58,8.47,8.47,0,0,0,1.33.16c.16,0-2.16-.31-1.22-.16l.66.09q1.5.22,3,.51c1.87.34,3.72.74,5.57,1.2a93.52,93.52,0,0,1,10.73,3.41l1.2.48c.27.1.54.21.8.33s-2-.85-1.1-.46,1.7.74,2.54,1.14c1.68.78,3.33,1.62,5,2.5a91.34,91.34,0,0,1,9.53,6c.69.49,1.36,1,2,1.51s-1.07-.81-.93-.72.34.26.5.39c.44.36.89.71,1.32,1.07q2.13,1.74,4.14,3.62a89,89,0,0,1,7.59,7.95c.55.65,1.09,1.3,1.62,2l.39.5c.84,1.05-.56-.74-.58-.76.32.36.6.79.89,1.18q1.63,2.22,3.14,4.54A86.91,86.91,0,0,1,211,894c.41.83.8,1.67,1.19,2.52l.51,1.18c.55,1.23-.8-2-.13-.3s1.36,3.48,2,5.25a91.23,91.23,0,0,1,3,11.15c.17.87.33,1.73.48,2.6l.21,1.31a3.76,3.76,0,0,0,.1.66c.21,1.48-.12-.34-.1-.78a56.14,56.14,0,0,0,.55,5.79c.13,2,.08,3.93.19,5.88a23.08,23.08,0,0,0,.32,2.34c.11.84-.35-2.87-.3-2.24,0,.25.06.51.08.76.12,1.25.18,2.5.21,3.75,0,2.23,0,4.45-.13,6.68-.08,1.45-.19,2.89-.33,4.34-.08.81-.16,1.61-.26,2.42a9.33,9.33,0,0,1-.14,1.17l-.09.7c-.13,1,.39-2.75.19-1.4a169.43,169.43,0,0,1-6.14,26.59c-1.78,5.68-3.83,11.28-6.08,16.79-.16.39-.52,1.89-.86,2.08,0,0,.94-2.22.43-1-.07.18-.15.35-.22.53L205.2,994q-1,2.36-2.1,4.69-2.26,4.93-4.74,9.78A334.72,334.72,0,0,1,171,1052.76c-1.41,2-2.84,3.88-4.29,5.81-.71,1-1.42,1.89-2.14,2.83-.24.31-.5.62-.72.94l.44-.57-1.11,1.43q-4.91,6.27-10,12.38a9.34,9.34,0,0,0-2.55,6.17,8.87,8.87,0,0,0,2.55,6.16c3.23,3,9.21,3.74,12.33,0Z"/><path class="cls-4" d="M250.16,1099.44q-10.95-11-21.11-22.69-4.7-5.46-9.2-11.09l-2-2.54c-.36-.45-.71-.91-1.06-1.36s-1-1.3.46.59l-.6-.77q-2.06-2.68-4.06-5.41A317,317,0,0,1,187,1015.38q-5.3-10.11-9.75-20.62l.88,2.08a221.39,221.39,0,0,1-13.72-44.45q-.86-4.47-1.47-9l.31,2.32a106,106,0,0,1-1.13-15.62v-.85c.24-4.56-4.17-8.92-8.72-8.71a8.91,8.91,0,0,0-8.72,8.71,69.77,69.77,0,0,0,.3,8.91,179,179,0,0,0,4.26,26.73,240.37,240.37,0,0,0,13,38.84,291.62,291.62,0,0,0,25.19,46.71A386.19,386.19,0,0,0,231,1104.82q3.36,3.51,6.8,7c3.23,3.24,9.15,3.47,12.33,0a8.88,8.88,0,0,0,0-12.33Z"/></g></svg>